<?xml version="1.0" standalone="no"?>
<!DOCTYPE svg PUBLIC "-//W3C//DTD SVG 20010904//EN"
 "http://www.w3.org/TR/2001/REC-SVG-20010904/DTD/svg10.dtd">
<svg version="1.0" xmlns="http://www.w3.org/2000/svg"
 width="64.000000pt" height="64.000000pt" viewBox="0 0 64.000000 64.000000"
 preserveAspectRatio="xMidYMid meet">

<g transform="translate(0.000000,64.000000) scale(0.100000,-0.100000)"
fill="#000000" stroke="none">
<path d="M107 483 c-9 -8 193 -143 213 -143 21 1 222 135 214 143 -9 9 -419 9
-427 0z"/>
<path d="M90 307 c0 -123 2 -146 16 -151 24 -9 417 -7 432 2 9 7 12 44 10 150
l-3 141 -105 -69 c-58 -38 -112 -69 -120 -70 -8 0 -51 24 -95 53 -44 30 -92
62 -107 71 l-28 18 0 -145z"/>
</g>
</svg>
